<svg xmlns="http://www.w3.org/2000/svg" viewBox="0 0 2400 2400">
	<path fill="#333333" d="M0 0H2400V2400H0V0z M1230 300Q1078 301 961 333Q844 365 746 423Q543 543 421 748Q300 954 300 1200Q300 1498 473 1732Q646 1966 916 2054Q944 2059 960 2045Q976 2031 976 2009Q976 1891 974 1842Q834 1869 770 1833Q706 1797 679 1752Q630 1641 588 1614Q491 1559 579 1550Q618 1553 652 1575Q686 1597 702 1621L716 1643Q750 1701 806 1725Q889 1761 978 1719Q991 1636 1036 1600Q903 1587 825 1544Q748 1501 712 1453Q628 1343 627 1155Q627 1013 720 915Q678 807 728 676Q765 657 848 697Q931 736 976 769Q1090 739 1201 739Q1312 739 1426 769Q1506 716 1566 693Q1626 670 1649 672L1673 676Q1724 807 1682 915Q1775 1018 1775 1155Q1775 1344 1689 1454Q1615 1544 1485 1578Q1430 1592 1364 1600Q1426 1656 1426 1766V1923Q1424 1981 1424 2007Q1424 2033 1440 2046Q1456 2059 1484 2054Q1753 1966 1927 1732Q2100 1498 2100 1200Q2100 1017 2028 851Q1956 685 1836 563Q1716 443 1550 371Q1382 299 1230 300z"/>
</svg>
