<svg xmlns="http://www.w3.org/2000/svg" viewBox="0 -431 2400 2400">
	<g transform="translate(0,1538) scale(1,-1)">
		<path fill="#36383a" d="M1230 1669q-152 -1 -269 -33t-215 -90q-203 -120 -325 -325q-121 -206 -121 -452q0 -298 173 -532t443 -322q28 -5 44 9t16 36q0 118 -2 167q-140 -27 -204 9t-91 81q-49 111 -91 138q-97 55 -9 64q39 -3 73 -25t50 -46l14 -22q34 -58 90 -82q83 -36 172 6q13 83 58 119q-133 13 -211 56q-77 43 -113 91q-84 110 -85 298q0 142 93 240q-42 108 8 239q37 19 120 -21q83 -39 128 -72q114 30 225 30t225 -30q80 53 140 76t83 21l24 -4q51 -131 9 -239q93 -103 93 -240q0 -189 -86 -299q-74 -90 -204 -124q-55 -14 -121 -22q62 -56 62 -166v-157q-2 -58 -2 -84t16 -39t44 -8q269 88 443 322q173 234 173 532q0 183 -72 349t-192 288q-120 120 -286 192q-168 72 -320 71zM2400 -431h-2400v2400h2400v-2400z" />
	</g>
</svg>
