<svg xmlns="http://www.w3.org/2000/svg" viewBox="0 0 512 512">
    <path fill="#b00" d="M0 0h512v512h-512z"/>
    <path fill="#fff" d="M264.244,387.188c0,0,55.307,0,108.342-2.688c53.035-2.688,62.73-17.333,67.808-62.752
    c6.71-60.096-0.672-139.989-0.672-139.989s-0.672-49.013-56.395-51.019c-55.723-2.016-118.997-2.688-118.997-2.688h-11.531
    c0,0-63.274,0.672-118.997,2.688s-56.395,51.019-56.395,51.019s-7.381,79.894-0.672,139.989
    c5.077,45.419,14.773,60.074,67.808,62.752c53.035,2.688,108.342,2.688,108.342,2.688H264.244z"/>
    <path fill="#DA281E" d="M220.404 204.586v104.703l99.36-51.669z"/>
    <path fill="#b00" d="M220.404 204.586l87.094 59.413 12.266-6.379z"/>
</svg>
