<svg xmlns="http://www.w3.org/2000/svg" viewBox="0 0 512 512">
    <path fill="#181616" d="M0 0h512v512h-512z"/>
    <path fill="#fff" d="M321.92 499.746c0-8.66.302-36.973.302-72.152 0-24.528-8.401-40.527-17.831-48.687 58.546-6.509 120.052-28.741 120.052-129.725 0-28.704-10.2-52.158-27.058-70.57 2.729-6.625 11.73-33.364-2.581-69.58 0 0-22.046-7.062-72.229 26.954-21.013-5.827-43.521-8.748-65.864-8.85-22.343.102-44.834 3.023-65.809 8.85-50.239-34.016-72.318-26.954-72.318-26.954-14.277 36.216-5.276 62.956-2.547 69.58-16.82 18.412-27.092 41.867-27.092 70.57 0 100.741 61.391 123.289 119.789 129.933-7.521 6.565-14.333 18.168-16.692 35.158-15.004 6.718-53.062 18.338-76.51-21.854 0 0-13.903-25.243-40.302-27.097 0 0-25.655-.336-1.799 15.982 0 0 17.232 8.082 29.193 38.47 0 0 15.434 46.927 88.577 31.021.115 21.969.357 42.684.357 48.95 0 4.825-2.334 10.223-8.165 12.254h146.526c-5.753-2.043-7.999-7.432-7.999-12.253zm-228.544-122.259c-.579 1.31-2.636 1.7-4.507.804-1.909-.859-2.977-2.641-2.36-3.95.565-1.344 2.624-1.718 4.528-.82 1.909.858 2.998 2.657 2.339 3.966zm10.65 11.88c-1.254 1.16-3.708.62-5.37-1.217-1.722-1.832-2.041-4.285-.77-5.463 1.293-1.161 3.669-.617 5.392 1.216 1.722 1.854 2.058 4.286.748 5.464zm10.366 15.14c-1.611 1.123-4.248.072-5.876-2.266-1.611-2.339-1.611-5.145.039-6.268 1.628-1.122 4.226-.11 5.876 2.207 1.607 2.378 1.607 5.183-.039 6.327zm14.201 14.631c-1.441 1.59-4.511 1.16-6.756-1.008-2.3-2.117-2.938-5.128-1.497-6.718 1.462-1.59 4.549-1.144 6.812 1.008 2.283 2.117 2.976 5.144 1.441 6.718zm19.592 8.495c-.638 2.058-3.593 2.993-6.569 2.117-2.977-.901-4.919-3.312-4.32-5.392.617-2.074 3.588-3.048 6.586-2.113 2.972.898 4.92 3.291 4.303 5.388zm15.94 5.578c-3.142.072-5.689-1.684-5.723-3.818 0-2.189 2.47-3.967 5.613-4.022 3.125-.06 5.688 1.685 5.688 3.835.072 2.168-2.453 3.967-5.578 4.005zm20.697-2.547c-3.053.562-5.876-.748-6.267-2.845-.378-2.168 1.833-4.341 4.881-4.902 3.108-.54 5.893.731 6.288 2.883.375 2.113-1.798 4.286-4.902 4.864z"/>
</svg>
