<svg xmlns="http://www.w3.org/2000/svg" viewBox="0 0 512 512">
    <path fill="#21759B" d="M0 0h512v512h-512z"/>
    <path fill="#fff" d="M355.945 150.708s-30.678 4.128-19.499 39.883 32.032 33.525 23.83 78.208c-8.203 44.693-26.027 79.701-26.027 79.701l-50.677-156.405h20.842v-8.938h-88.629v9.686h25.333l20.106 64.799-36.501 90.87-53.621-156.405h18.624v-8.939l-52.769-.277s37.686-68.245 123.521-67.498c60.886.499 95.467 35.315 95.467 35.315zM128.916 197.055l65.632 196.149c0-.011-122.336-60.832-65.632-196.149zM267.743 282.942l-45.312 120.886s43.467 14.389 88.234-3.809l-42.922-117.077zM396.564 207.166s.768 10.422-10.955 50.646c-11.733 40.224-43.296 126.101-43.296 126.101s94.837-58.687 54.251-176.747zM260.383 103.871c86.603 0 156.789 70.443 156.789 157.323 0 86.891-70.187 157.312-156.789 157.312-86.592 0-156.779-70.422-156.779-157.312s70.187-157.323 156.779-157.323m0-8.875c-91.339 0-165.653 74.549-165.653 166.187 0 91.627 74.314 166.176 165.653 166.176s165.653-74.549 165.653-166.176-74.314-166.187-165.653-166.187z"/>
</svg>
