<svg xmlns="http://www.w3.org/2000/svg" viewBox="0 0 280 136">
    <g fill="#dc322f">
        <path d="M43.466 24.63l6.174 70.568 7.167-68.196c3.703.436 7.47.662 11.29.662 3.818 0 7.585-.226 11.288-.66l7.167 68.195 6.174-70.57L68.096 0l-24.63 24.63z"/>
        <path d="M136.192 68.096L112.266 44.17l-10.244 58.096z"/>
        <path d="M23.926 44.17L0 68.096l34.17 34.17z"/>
        <path d="M68.096 83.87l-6.263 35.692c-3.252.13-6.477.363-9.673.694l15.936 15.936 15.936-15.936c-3.196-.33-6.42-.563-9.673-.694l-6.264-35.69z"/>
    </g>
    <g fill="#93a1a1">
        <path d="M169.31 68.002h-6.34l-6.047-21.265c-.26-.926-.586-2.26-.976-4-.39-1.755-.626-2.974-.707-3.657-.163 1.04-.43 2.39-.805 4.048-.357 1.658-.658 2.894-.902 3.707l-5.9 21.167h-6.343l-4.608-17.85L132 32.348h5.95l5.097 20.777c.797 3.332 1.366 6.275 1.707 8.827.18-1.382.447-2.926.805-4.633.355-1.707.68-3.09.973-4.146l5.804-20.826h5.78l5.95 20.923c.57 1.936 1.17 4.83 1.804 8.68.245-2.322.83-5.28 1.757-8.874l5.073-20.73h5.902L169.312 68"/>
        <path d="M188.747 68.002h-5.73v-26.97h5.73V68m-6.072-34.116c0-1.024.276-1.813.83-2.366.568-.552 1.372-.83 2.413-.83 1.008 0 1.788.278 2.34.83.57.553.855 1.342.855 2.366 0 .975-.285 1.748-.854 2.317-.555.553-1.335.83-2.343.83-1.04 0-1.845-.277-2.414-.83-.553-.57-.83-1.34-.83-2.316"/>
        <path d="M202.696 68.002h-5.73V30.057h5.73v37.945"/>
        <path d="M216.645 68.002h-5.73V30.057h5.73v37.945"/>
        <path d="M220.766 41.03h6.243l5.485 15.29c.83 2.18 1.382 4.228 1.658 6.146h.195c.145-.894.414-1.975.804-3.243.39-1.284 2.455-7.348 6.194-18.192h6.194L236.005 71.59C233.91 77.198 230.415 80 225.52 80c-1.267 0-2.502-.138-3.706-.414V75.05c.862.195 1.846.292 2.95.292 2.765 0 4.708-1.6 5.83-4.804l1-2.536-10.828-26.97"/>
        <path d="M266.88 48.664H280v17.9c-2.146.698-4.21 1.194-6.194 1.487-1.967.295-4.097.44-6.39.44-5.397 0-9.56-1.592-12.485-4.78-2.924-3.202-4.39-7.713-4.39-13.533 0-5.74 1.653-10.226 4.953-13.46 3.3-3.253 7.844-4.88 13.632-4.88 3.723 0 7.25.717 10.583 2.147l-2.048 4.853c-2.895-1.333-5.79-2-8.683-2-3.804 0-6.81 1.195-9.022 3.585-2.21 2.39-3.317 5.66-3.317 9.805 0 4.357.992 7.673 2.975 9.95 2 2.26 4.87 3.39 8.608 3.39 1.888 0 3.904-.237 6.05-.708v-9.195h-7.39v-5"/>
    </g>
    <g fill="#073642">
        <path d="M157.752 92.215c0 2.32-.838 4.148-2.514 5.484-1.664 1.334-3.984 2.002-6.96 2.002-2.743 0-5.17-.515-7.278-1.547v-5.062c1.734.773 3.2 1.318 4.395 1.635 1.207.315 2.308.473 3.304.473 1.194 0 2.11-.227 2.74-.684.645-.457.967-1.137.967-2.04 0-.503-.14-.95-.422-1.335-.28-.4-.697-.78-1.248-1.142-.54-.363-1.646-.943-3.322-1.74-1.57-.738-2.748-1.447-3.533-2.127-.785-.68-1.412-1.47-1.88-2.372-.47-.902-.704-1.957-.704-3.164 0-2.274.766-4.06 2.302-5.36 1.546-1.302 3.68-1.953 6.398-1.953 1.336 0 2.607.16 3.814.476 1.22.316 2.49.762 3.815 1.336l-1.76 4.236c-1.37-.562-2.507-.955-3.41-1.178-.89-.222-1.77-.333-2.636-.334-1.03 0-1.82.24-2.372.72-.55.482-.825 1.11-.825 1.882 0 .48.11.902.334 1.266.222.35.573.697 1.054 1.037.493.33 1.647.927 3.464 1.794 2.402 1.148 4.048 2.302 4.94 3.463.89 1.147 1.335 2.56 1.335 4.235"/>
        <path d="M161.76 74.62c0-1.747.972-2.62 2.918-2.62 1.945 0 2.918.873 2.918 2.62 0 .83-.246 1.482-.74 1.95-.48.457-1.206.686-2.178.686-1.946 0-2.918-.88-2.918-2.637m5.59 24.73h-5.362V79.7h5.362v19.65"/>
        <path d="M181.236 95.432c.938 0 2.063-.205 3.375-.615v3.99c-1.334.597-2.974.896-4.92.896-2.144 0-3.71-.54-4.693-1.617-.973-1.09-1.46-2.72-1.46-4.887v-9.476h-2.565v-2.268l2.954-1.793 1.547-4.148h3.427V79.7h5.5v4.025h-5.502V93.2c0 .76.21 1.324.633 1.687.436.363 1.004.545 1.707.545"/>
        <path d="M196.705 83.145c-1.137 0-2.027.363-2.672 1.09-.644.714-1.013 1.734-1.107 3.058h7.523c-.025-1.324-.37-2.344-1.04-3.058-.667-.727-1.57-1.09-2.706-1.09m.756 16.558c-3.163 0-5.636-.873-7.417-2.62-1.78-1.745-2.672-4.218-2.672-7.417 0-3.293.82-5.836 2.463-7.63 1.652-1.803 3.932-2.706 6.838-2.706 2.778 0 4.94.79 6.487 2.373 1.547 1.582 2.32 3.768 2.32 6.557v2.6h-12.673c.058 1.525.51 2.714 1.353 3.57.844.855 2.028 1.283 3.55 1.283 1.185 0 2.304-.123 3.358-.37 1.055-.245 2.157-.638 3.305-1.177v4.15c-.938.467-1.94.813-3.007 1.036-1.066.234-2.367.35-3.902.35"/>
    </g>
</svg>
