<svg version="1.1" xmlns="http://www.w3.org/2000/svg" viewBox="0 0 512 512" preserveAspectRatio="xMidYMid meet">
<g fill="#dc322f">
	<path d="M163.406,92.594l23.21,265.292l26.946-256.373C227.481,103.15,241.641,104,256,104
		c14.358,0,28.519-0.85,42.438-2.486l26.946,256.378l23.21-265.299L256,0L163.406,92.594z"/>
	<polygon points="422.053,166.053 383.541,384.459 512,256 	"/>
	<polygon points="0,256 128.459,384.459 89.948,166.052 	"/>
	<path d="M256,315.304L232.454,449.48c-12.223,0.494-24.348,1.365-36.364,2.609L256,512l59.91-59.91
		c-12.016-1.244-24.141-2.115-36.364-2.609L256,315.304z"/>
</g>
</svg>
