<svg xmlns="http://www.w3.org/2000/svg" viewBox="0 -431 2400 2400">
	<g transform="translate(0,1538) scale(1,-1)">
		<path fill="#21759b" d="M1210 -40q-130 0 -239 33l243 705l249 -681q2 -5 6 -11q-129 -46 -259 -46zM391 769q0 172 70 329l386 -1057q-206 99 -331 295t-125 433zM2009 762q0 -214 -109 -399q-109 -186 -293 -293l247 714q61 154 61 290q0 43 -5 83q99 -181 99 -395zM1174 1578q342 0 572 -212h-10q-58 0 -97 -43t-39 -84t4 -57q4 -14 7 -22q2 -8 9 -22t9 -20t12 -22t22 -37t24 -41q11 -20 35 -69q24 -50 24 -111t-11 -111t-50 -179l-81 -269l-292 869l92 8q21 3 28 20q8 16 -2 32t-31 15q-131 -11 -192 -11t-201 8l-36 3q-20 1 -30 -15t-3 -34t38 -20q31 -3 75 -6l126 -345l-177 -531l-295 876l93 8q19 3 27 20q8 16 -2 32t-30 15q-132 -11 -216 -11l-52 1q110 169 289 267t361 98zM300 769q0 -123 32 -239t91 -215q119 -204 326 -325t451 -121q310 -1 562 197q151 118 245 304q93 185 93 414t-121 436t-328 328t-451 121t-454 -123q-204 -119 -323 -323q-123 -210 -123 -454zM2400 -431h-2400v2400h2400v-2400z" />
	</g>
</svg>
