<svg xmlns="http://www.w3.org/2000/svg" viewBox="0 0 512 512">
    <path fill="#007BB6" d="M0 0h512v512h-512z"/>
    <path fill="#fff" d="M168.297 124.085c-17.152 0-28.352 11.552-28 26.955-.352 14.699 10.859 26.603 27.659 26.603 17.504 0 28.704-11.904 28.704-26.603-.352-15.403-11.211-26.955-28.363-26.955zm-26.602 255.189h53.205v-181.856h-53.205v181.856zm197.067-179.295c-17.014 0-34.368-3.509-52.864 25.173h-1.056l-.929-27.723h-47.114c.693 15.051.789 37.525.789 58.88v122.976h53.205v-105.109c0-4.906.693-9.803 2.091-13.312 3.499-9.803 12.257-19.958 26.955-19.958 19.253 0 26.954 15.051 26.954 37.109v101.27h53.206v-107.935c.021-50.412-26.24-71.371-61.237-71.371z"/>
</svg>
