<svg xmlns="http://www.w3.org/2000/svg" viewBox="0 0 2400 2400">
	<path fill="#21759b" d="M0 0H2400V2400H0V0z M1210 2009Q1080 2009 971 1976L1214 1271L1463 1952Q1465 1957 1469 1963Q1340 2009 1210 2009z M391 1200Q391 1028 461 871L847 1928Q641 1829 516 1633Q391 1437 391 1200z M2009 1207Q2009 1421 1900 1606Q1791 1792 1607 1899L1854 1185Q1915 1031 1915 895Q1915 852 1910 812Q2009 993 2009 1207z M1174 391Q1516 391 1746 603H1736Q1678 603 1639 646Q1600 689 1600 730Q1600 771 1604 787Q1608 801 1611 809Q1613 817 1620 831Q1627 845 1629 851Q1631 857 1641 873Q1651 889 1663 910Q1675 931 1687 951Q1698 971 1722 1020Q1746 1070 1746 1131Q1746 1192 1735 1242Q1724 1292 1685 1421L1604 1690L1312 821L1404 813Q1425 810 1432 793Q1440 777 1430 761Q1420 745 1399 746Q1268 757 1207 757Q1146 757 1006 749L970 746Q950 745 940 761Q930 777 937 795Q944 813 975 815Q1006 818 1050 821L1176 1166L999 1697L704 821L797 813Q816 810 824 793Q832 777 822 761Q812 745 792 746Q660 757 576 757L524 756Q634 587 813 489Q992 391 1174 391z M300 1200Q300 1323 332 1439Q364 1555 423 1654Q542 1858 749 1979Q956 2100 1200 2100Q1510 2101 1762 1903Q1913 1785 2007 1599Q2100 1414 2100 1185Q2100 956 1979 749Q1858 542 1651 421Q1444 300 1200 300Q956 300 746 423Q542 542 423 746Q300 956 300 1200z"/>
</svg>
