<svg xmlns="http://www.w3.org/2000/svg" viewBox="0 0 280 136">
<g fill="#dc322f" transform="scale(0.265625,0.265625)">
	<path d="M256,0L164,92L187,357L214,101C228,103,242,104,256,104C270,104,284,103,298,101L325,357L348,92L256,0z"/>
	<polygon points="0,256 90,166 128,384"/>
	<polygon points="512,256 422,166 384,384"/>
	<path d="M256,316L232,450C220,450,208,451,196,452L256,512L316,452C304,451,292,450,280,450L256,316z"/>
</g>
<g fill="#93a1a1">
	<path d="m 169.31,68.002 h -6.34 l -6.047,-21.265 c -0.26,-0.926 -0.586,-2.26 -0.976,-4 -0.39,-1.755 -0.626,-2.974 -0.707,-3.657 -0.163,1.04 -0.43,2.39 -0.805,4.048 -0.357,1.658 -0.658,2.894 -0.902,3.707 l -5.9,21.167 H 141.29 L 136.682,50.152 132,32.348 h 5.95 l 5.097,20.777 c 0.797,3.332 1.366,6.275 1.707,8.827 0.18,-1.382 0.447,-2.926 0.805,-4.633 0.355,-1.707 0.68,-3.09 0.973,-4.146 l 5.804,-20.826 h 5.78 l 5.95,20.923 c 0.57,1.936 1.17,4.83 1.804,8.68 0.245,-2.322 0.83,-5.28 1.757,-8.874 l 5.073,-20.73 h 5.902 L 169.312,68"/>
	<path d="m 188.747,68.002 h -5.73 v -26.97 h 5.73 V 68 m -6.072,-34.116 c 0,-1.024 0.276,-1.813 0.83,-2.366 0.568,-0.552 1.372,-0.83 2.413,-0.83 1.008,0 1.788,0.278 2.34,0.83 0.57,0.553 0.855,1.342 0.855,2.366 0,0.975 -0.285,1.748 -0.854,2.317 -0.555,0.553 -1.335,0.83 -2.343,0.83 -1.04,0 -1.845,-0.277 -2.414,-0.83 -0.553,-0.57 -0.83,-1.34 -0.83,-2.316"/>
	<path d="m 202.696,68.002 h -5.73 V 30.057 h 5.73 v 37.945"/>
	<path d="m 216.645,68.002 h -5.73 V 30.057 h 5.73 v 37.945"/>
	<path d="m 220.766,41.03 h 6.243 l 5.485,15.29 c 0.83,2.18 1.382,4.228 1.658,6.146 h 0.195 c 0.145,-0.894 0.414,-1.975 0.804,-3.243 0.39,-1.284 2.455,-7.348 6.194,-18.192 h 6.194 L 236.005,71.59 c -2.095,5.608 -5.59,8.41 -10.485,8.41 -1.267,0 -2.502,-0.138 -3.706,-0.414 V 75.05 c 0.862,0.195 1.846,0.292 2.95,0.292 2.765,0 4.708,-1.6 5.83,-4.804 l 1,-2.536 -10.828,-26.97"/>
	<path d="M 266.88,48.664 H 280 v 17.9 c -2.146,0.698 -4.21,1.194 -6.194,1.487 -1.967,0.295 -4.097,0.44 -6.39,0.44 -5.397,0 -9.56,-1.592 -12.485,-4.78 -2.924,-3.202 -4.39,-7.713 -4.39,-13.533 0,-5.74 1.653,-10.226 4.953,-13.46 3.3,-3.253 7.844,-4.88 13.632,-4.88 3.723,0 7.25,0.717 10.583,2.147 l -2.048,4.853 c -2.895,-1.333 -5.79,-2 -8.683,-2 -3.804,0 -6.81,1.195 -9.022,3.585 -2.21,2.39 -3.317,5.66 -3.317,9.805 0,4.357 0.992,7.673 2.975,9.95 2,2.26 4.87,3.39 8.608,3.39 1.888,0 3.904,-0.237 6.05,-0.708 v -9.195 h -7.39 v -5"/>
</g>
<g fill="#073642">
	<path d="m 157.752,92.215 c 0,2.32 -0.838,4.148 -2.514,5.484 -1.664,1.334 -3.984,2.002 -6.96,2.002 -2.743,0 -5.17,-0.515 -7.278,-1.547 v -5.062 c 1.734,0.773 3.2,1.318 4.395,1.635 1.207,0.315 2.308,0.473 3.304,0.473 1.194,0 2.11,-0.227 2.74,-0.684 0.645,-0.457 0.967,-1.137 0.967,-2.04 0,-0.503 -0.14,-0.95 -0.422,-1.335 -0.28,-0.4 -0.697,-0.78 -1.248,-1.142 -0.54,-0.363 -1.646,-0.943 -3.322,-1.74 -1.57,-0.738 -2.748,-1.447 -3.533,-2.127 -0.785,-0.68 -1.412,-1.47 -1.88,-2.372 -0.47,-0.902 -0.704,-1.957 -0.704,-3.164 0,-2.274 0.766,-4.06 2.302,-5.36 1.546,-1.302 3.68,-1.953 6.398,-1.953 1.336,0 2.607,0.16 3.814,0.476 1.22,0.316 2.49,0.762 3.815,1.336 l -1.76,4.236 c -1.37,-0.562 -2.507,-0.955 -3.41,-1.178 -0.89,-0.222 -1.77,-0.333 -2.636,-0.334 -1.03,0 -1.82,0.24 -2.372,0.72 -0.55,0.482 -0.825,1.11 -0.825,1.882 0,0.48 0.11,0.902 0.334,1.266 0.222,0.35 0.573,0.697 1.054,1.037 0.493,0.33 1.647,0.927 3.464,1.794 2.402,1.148 4.048,2.302 4.94,3.463 0.89,1.147 1.335,2.56 1.335,4.235"/>
	<path d="m 161.76,74.62 c 0,-1.747 0.972,-2.62 2.918,-2.62 1.945,0 2.918,0.873 2.918,2.62 0,0.83 -0.246,1.482 -0.74,1.95 -0.48,0.457 -1.206,0.686 -2.178,0.686 -1.946,0 -2.918,-0.88 -2.918,-2.637 m 5.59,24.73 h -5.362 V 79.7 h 5.362 v 19.65"/>
	<path d="m 181.236,95.432 c 0.938,0 2.063,-0.205 3.375,-0.615 v 3.99 c -1.334,0.597 -2.974,0.896 -4.92,0.896 -2.144,0 -3.71,-0.54 -4.693,-1.617 -0.973,-1.09 -1.46,-2.72 -1.46,-4.887 v -9.476 h -2.565 v -2.268 l 2.954,-1.793 1.547,-4.148 h 3.427 V 79.7 h 5.5 v 4.025 h -5.502 V 93.2 c 0,0.76 0.21,1.324 0.633,1.687 0.436,0.363 1.004,0.545 1.707,0.545"/>
	<path d="m 196.705,83.145 c -1.137,0 -2.027,0.363 -2.672,1.09 -0.644,0.714 -1.013,1.734 -1.107,3.058 h 7.523 c -0.025,-1.324 -0.37,-2.344 -1.04,-3.058 -0.667,-0.727 -1.57,-1.09 -2.706,-1.09 m 0.756,16.558 c -3.163,0 -5.636,-0.873 -7.417,-2.62 -1.78,-1.745 -2.672,-4.218 -2.672,-7.417 0,-3.293 0.82,-5.836 2.463,-7.63 1.652,-1.803 3.932,-2.706 6.838,-2.706 2.778,0 4.94,0.79 6.487,2.373 1.547,1.582 2.32,3.768 2.32,6.557 v 2.6 h -12.673 c 0.058,1.525 0.51,2.714 1.353,3.57 0.844,0.855 2.028,1.283 3.55,1.283 1.185,0 2.304,-0.123 3.358,-0.37 1.055,-0.245 2.157,-0.638 3.305,-1.177 v 4.15 c -0.938,0.467 -1.94,0.813 -3.007,1.036 -1.066,0.234 -2.367,0.35 -3.902,0.35"/>
</g>
</svg>
