<svg xmlns="http://www.w3.org/2000/svg" viewBox="0 0 625 625">
    <g fill="#c0213a">
        <path d="M0 312.5l158.169 158.17-48.353-267.989-109.815 109.819"/>
        <path d="M312.499.003l-.003-.004-113.406 113.409c7.495 74.162 24.115 237.056 30.865 290.491 16.172-153.311 30.956-274.175 32.43-294.075 5.588 2.794 47.862 3.678 47.862 3.678s.826-.016 2.251-.055c1.427.039 2.254.055 2.254.055s42.275-.884 47.864-3.678c1.472 19.9 16.256 140.764 32.426 294.075 6.754-53.435 23.372-216.329 30.869-290.491l-113.409-113.409-.004.004"/>
        <path d="M314.712 398.024c-.035.349-2.214-19.151-2.214-19.151s-2.176 19.5-2.211 19.151c-.092.983-19.172 148.88-28.047 149.586-14.342.769-28.751 1.758-44.606 2.525l74.863 74.865.002-.001.004.001 74.865-74.865c-15.856-.767-30.265-1.756-44.609-2.525-8.874-.706-27.954-148.604-28.046-149.586"/>
        <path d="M515.183 202.681l-48.351 267.989 158.169-158.17-109.817-109.819"/>
    </g>
</svg>
